<svg xmlns="http://www.w3.org/2000/svg" xmlns:svg="http://www.w3.org/2000/svg" xmlns:xlink="http://www.w3.org/1999/xlink" id="svgLogo" width="400" height="400" preserveAspectRatio="none" version="1.1" viewBox="-113 -113 226 226"><style>.rune-circle{fill:#fff}.runa{stroke:#ffa950;stroke-width:2px;stroke-linecap:round;stroke-linejoin:round}.border line{stroke:#bb4c00;stroke-width:2px}</style><defs><g class="symbs"><symbol id="mir" class="runa" refX="center" refY="center" viewBox="0 0 10 14"><g><line x1="1" x2="5" y1="2" y2="5"/><line x1="5" x2="9" y1="5" y2="2"/><line x1="5" x2="5" y1="1" y2="12"/></g></symbol><symbol id="perun" class="runa" viewBox="0 0 10 14"><g transform="scale(1 0.9) translate(0 1.4)"><line x1="2" x2="2" y1="1" y2="12"/><line x1="2" x2="8" y1="1" y2="1"/><line x1="8" x2="8" y1="1" y2="12"/></g></symbol><symbol id="veter" class="runa" viewBox="0 0 10 14"><g><line x1="3" x2="3" y1="2" y2="12"/><line x1="1" x2="5" y1="3" y2="1"/><line x1="5" x2="9" y1="1" y2="3"/><line x1="7" x2="7" y1="2" y2="12"/></g></symbol><symbol id="dazd-bogh" class="runa" viewBox="0 0 10 14"><g transform="translate(1 0.4) scale(1.03)"><line x1="2" x2="2" y1="1" y2="12"/><line x1="2" x2="8" y1="3" y2="6"/><line x1="8" x2="2" y1="6" y2="10"/></g></symbol><symbol id="istok" class="runa" viewBox="0 0 10 14"><g transform="scale(1.02)"><line x1="5" x2="5" y1="1" y2="12"/></g></symbol><symbol id="sila" class="runa" viewBox="0 0 10 14"><g><line x1="2" x2="2" y1="1" y2="9"/><line x1="2" x2="8" y1="9" y2="4"/><line x1="8" x2="8" y1="4" y2="12"/></g></symbol><symbol id="bereginya" class="runa" viewBox="0 0 10 14"><g transform="translate(0.8 0.2)"><line x1="2" x2="2" y1="1" y2="12"/><line x1="2" x2="8" y1="8" y2="5"/><line x1="2" x2="8" y1="12" y2="9"/></g></symbol><symbol id="raduga" class="runa" viewBox="0 0 10 14"><g transform="scale(1 0.95) translate(1 0.7)"><line x1="2" x2="2" y1="1" y2="12"/><line x1="2" x2="7" y1="1" y2="4"/><line x1="7" x2="2" y1="4" y2="7"/><line x1="2" x2="7" y1="7" y2="12"/></g></symbol></g></defs><circle r="112" fill="#ff0" stroke="#bb4c00" stroke-width="2"/><g id="circles"><circle r="100" fill="hsl(60, 100%, 80%)"/><circle r="72.6" fill="hsl(90, 100%, 80%)"/><circle r="50" fill="hsl(120, 100%, 80%)"/><circle r="36.3" fill="hsl(150, 100%, 80%)"/><circle r="25" fill="hsl(180, 100%, 80%)"/><circle r="18.15" fill="hsl(210, 100%, 80%)"/><circle r="12.5" fill="hsl(240, 100%, 80%)"/><circle r="9.075" fill="hsl(270, 100%, 80%)"/><circle r="6.25" fill="hsl(300, 100%, 80%)"/><circle r="4.537" fill="hsl(330, 100%, 80%)"/></g><g class="spin"><g id="runes"><g><g class="backSpin" transform="translate(0, -86.3)"><circle r="10" class="rune-circle"/><use id="r-mir" width="14" height="14" fill="red" href="#mir" transform="translate(-7.0, -7.0)" xlink:href="#mir"/></g></g><g><g class="backSpin" transform="translate(61.023, -61.023)"><circle r="10" class="rune-circle"/><use id="r-perun" width="14" height="14" fill="red" href="#perun" transform="translate(-7.0, -7.0)" xlink:href="#perun"/></g></g><g><g class="backSpin" transform="translate(86.3, 0)"><circle r="10" class="rune-circle"/><use id="r-veter" width="14" height="14" fill="red" href="#veter" transform="translate(-7.0, -7.0)" xlink:href="#veter"/></g></g><g><g class="backSpin" transform="translate(61.023, 61.023)"><circle r="10" class="rune-circle"/><use id="r-dazd-bogh" width="14" height="14" fill="red" href="#dazd-bogh" transform="translate(-7.0, -7.0)" xlink:href="#dazd-bogh"/></g></g><g><g class="backSpin" transform="translate(0, 86.3)"><circle r="10" class="rune-circle"/><use id="r-istok" width="14" height="14" fill="red" href="#istok" transform="translate(-7.0, -7.0)" xlink:href="#istok"/></g></g><g><g class="backSpin" transform="translate(-61.023, 61.023)"><circle r="10" class="rune-circle"/><use id="r-sila" width="14" height="14" fill="red" href="#sila" transform="translate(-7.0, -7.0)" xlink:href="#sila"/></g></g><g><g class="backSpin" transform="translate(-86.3, 0)"><circle r="10" class="rune-circle"/><use id="r-bereginya" width="14" height="14" fill="red" href="#bereginya" transform="translate(-7.0, -7.0)" xlink:href="#bereginya"/></g></g><g><g class="backSpin" transform="translate(-61.023, -61.023)"><circle r="10" class="rune-circle"/><use id="r-raduga" width="14" height="14" fill="red" href="#raduga" transform="translate(-7.0, -7.0)" xlink:href="#raduga"/></g></g></g><g id="alatir" class="border"><line x1="0" x2="38.268" y1="-50" y2="-92.388"/><line x1="38.268" x2="35.355" y1="-92.388" y2="-35.355"/><line x1="35.355" x2="92.388" y1="-35.355" y2="-38.268"/><line x1="92.388" x2="50" y1="-38.268" y2="0"/><line x1="50" x2="92.388" y1="0" y2="38.268"/><line x1="92.388" x2="35.355" y1="38.268" y2="35.355"/><line x1="35.355" x2="38.268" y1="35.355" y2="92.388"/><line x1="38.268" x2="0" y1="92.388" y2="50"/><line x1="0" x2="-38.268" y1="50" y2="92.388"/><line x1="-38.268" x2="-35.355" y1="92.388" y2="35.355"/><line x1="-35.355" x2="-92.388" y1="35.355" y2="38.268"/><line x1="-92.388" x2="-50" y1="38.268" y2="0"/><line x1="-50" x2="-92.388" y1="0" y2="-38.268"/><line x1="-92.388" x2="-35.355" y1="-38.268" y2="-35.355"/><line x1="-35.355" x2="-38.268" y1="-35.355" y2="-92.388"/><line x1="-38.268" x2="0" y1="-92.388" y2="-50"/><line x1="0" x2="38.268" y1="-50" y2="-92.388"/><line x1="38.268" x2="35.355" y1="-92.388" y2="-35.355"/><line x1="35.355" x2="92.388" y1="-35.355" y2="-38.268"/><line x1="92.388" x2="50" y1="-38.268" y2="0"/><line x1="50" x2="92.388" y1="0" y2="38.268"/><line x1="92.388" x2="35.355" y1="38.268" y2="35.355"/><line x1="35.355" x2="38.268" y1="35.355" y2="92.388"/><line x1="38.268" x2="0" y1="92.388" y2="50"/><line x1="0" x2="-38.268" y1="50" y2="92.388"/><line x1="-38.268" x2="-35.355" y1="92.388" y2="35.355"/><line x1="-35.355" x2="-92.388" y1="35.355" y2="38.268"/><line x1="-92.388" x2="-50" y1="38.268" y2="0"/><line x1="-50" x2="-92.388" y1="0" y2="-38.268"/><line x1="-92.388" x2="-35.355" y1="-38.268" y2="-35.355"/><line x1="-35.355" x2="-38.268" y1="-35.355" y2="-92.388"/><line x1="-38.268" x2="0" y1="-92.388" y2="-50"/><line x1="0" x2="9.567" y1="-50" y2="-23.097"/><line x1="9.567" x2="35.355" y1="-23.097" y2="-35.355"/><line x1="35.355" x2="23.097" y1="-35.355" y2="-9.567"/><line x1="23.097" x2="50" y1="-9.567" y2="0"/><line x1="50" x2="23.097" y1="0" y2="9.567"/><line x1="23.097" x2="35.355" y1="9.567" y2="35.355"/><line x1="35.355" x2="9.567" y1="35.355" y2="23.097"/><line x1="9.567" x2="0" y1="23.097" y2="50"/><line x1="0" x2="-9.567" y1="50" y2="23.097"/><line x1="-9.567" x2="-35.355" y1="23.097" y2="35.355"/><line x1="-35.355" x2="-23.097" y1="35.355" y2="9.567"/><line x1="-23.097" x2="-50" y1="9.567" y2="0"/><line x1="-50" x2="-23.097" y1="0" y2="-9.567"/><line x1="-23.097" x2="-35.355" y1="-9.567" y2="-35.355"/><line x1="-35.355" x2="-9.567" y1="-35.355" y2="-23.097"/><line x1="-9.567" x2="0" y1="-23.097" y2="-50"/><line x1="0" x2="9.567" y1="-50" y2="-23.097"/><line x1="9.567" x2="35.355" y1="-23.097" y2="-35.355"/><line x1="35.355" x2="23.097" y1="-35.355" y2="-9.567"/><line x1="23.097" x2="50" y1="-9.567" y2="0"/><line x1="50" x2="23.097" y1="0" y2="9.567"/><line x1="23.097" x2="35.355" y1="9.567" y2="35.355"/><line x1="35.355" x2="9.567" y1="35.355" y2="23.097"/><line x1="9.567" x2="0" y1="23.097" y2="50"/><line x1="0" x2="-9.567" y1="50" y2="23.097"/><line x1="-9.567" x2="-35.355" y1="23.097" y2="35.355"/><line x1="-35.355" x2="-23.097" y1="35.355" y2="9.567"/><line x1="-23.097" x2="-50" y1="9.567" y2="0"/><line x1="-50" x2="-23.097" y1="0" y2="-9.567"/><line x1="-23.097" x2="-35.355" y1="-9.567" y2="-35.355"/><line x1="-35.355" x2="-9.567" y1="-35.355" y2="-23.097"/><line x1="-9.567" x2="0" y1="-23.097" y2="-50"/><line x1="0" x2="9.567" y1="-50" y2="-23.097"/><line x1="9.567" x2="0" y1="-23.097" y2="-12.5"/><line x1="0" x2="9.567" y1="-12.5" y2="-23.097"/><line x1="9.567" x2="8.839" y1="-23.097" y2="-8.839"/><line x1="8.839" x2="23.097" y1="-8.839" y2="-9.567"/><line x1="23.097" x2="12.5" y1="-9.567" y2="0"/><line x1="12.5" x2="23.097" y1="0" y2="9.567"/><line x1="23.097" x2="8.839" y1="9.567" y2="8.839"/><line x1="8.839" x2="9.567" y1="8.839" y2="23.097"/><line x1="9.567" x2="0" y1="23.097" y2="12.5"/><line x1="0" x2="-9.567" y1="12.5" y2="23.097"/><line x1="-9.567" x2="-8.839" y1="23.097" y2="8.839"/><line x1="-8.839" x2="-23.097" y1="8.839" y2="9.567"/><line x1="-23.097" x2="-12.5" y1="9.567" y2="0"/><line x1="-12.5" x2="-23.097" y1="0" y2="-9.567"/><line x1="-23.097" x2="-8.839" y1="-9.567" y2="-8.839"/><line x1="-8.839" x2="-9.567" y1="-8.839" y2="-23.097"/><line x1="-9.567" x2="0" y1="-23.097" y2="-12.5"/><line x1="0" x2="9.567" y1="-12.5" y2="-23.097"/><line x1="9.567" x2="8.839" y1="-23.097" y2="-8.839"/><line x1="8.839" x2="23.097" y1="-8.839" y2="-9.567"/><line x1="23.097" x2="12.5" y1="-9.567" y2="0"/><line x1="12.5" x2="23.097" y1="0" y2="9.567"/><line x1="23.097" x2="8.839" y1="9.567" y2="8.839"/><line x1="8.839" x2="9.567" y1="8.839" y2="23.097"/><line x1="9.567" x2="0" y1="23.097" y2="12.5"/><line x1="0" x2="-9.567" y1="12.5" y2="23.097"/><line x1="-9.567" x2="-8.839" y1="23.097" y2="8.839"/><line x1="-8.839" x2="-23.097" y1="8.839" y2="9.567"/><line x1="-23.097" x2="-12.5" y1="9.567" y2="0"/><line x1="-12.5" x2="-23.097" y1="0" y2="-9.567"/><line x1="-23.097" x2="-8.839" y1="-9.567" y2="-8.839"/><line x1="-8.839" x2="-9.567" y1="-8.839" y2="-23.097"/><line x1="-9.567" x2="0" y1="-23.097" y2="-12.5"/><line x1="0" x2="2.392" y1="-12.5" y2="-5.774"/><line x1="2.392" x2="8.839" y1="-5.774" y2="-8.839"/><line x1="8.839" x2="5.774" y1="-8.839" y2="-2.392"/><line x1="5.774" x2="12.5" y1="-2.392" y2="0"/><line x1="12.5" x2="5.774" y1="0" y2="2.392"/><line x1="5.774" x2="8.839" y1="2.392" y2="8.839"/><line x1="8.839" x2="2.392" y1="8.839" y2="5.774"/><line x1="2.392" x2="0" y1="5.774" y2="12.5"/><line x1="0" x2="-2.392" y1="12.5" y2="5.774"/><line x1="-2.392" x2="-8.839" y1="5.774" y2="8.839"/><line x1="-8.839" x2="-5.774" y1="8.839" y2="2.392"/><line x1="-5.774" x2="-12.5" y1="2.392" y2="0"/><line x1="-12.5" x2="-5.774" y1="0" y2="-2.392"/><line x1="-5.774" x2="-8.839" y1="-2.392" y2="-8.839"/><line x1="-8.839" x2="-2.392" y1="-8.839" y2="-5.774"/><line x1="-2.392" x2="0" y1="-5.774" y2="-12.5"/><line x1="0" x2="2.392" y1="-12.5" y2="-5.774"/><line x1="2.392" x2="8.839" y1="-5.774" y2="-8.839"/><line x1="8.839" x2="5.774" y1="-8.839" y2="-2.392"/><line x1="5.774" x2="12.5" y1="-2.392" y2="0"/><line x1="12.5" x2="5.774" y1="0" y2="2.392"/><line x1="5.774" x2="8.839" y1="2.392" y2="8.839"/><line x1="8.839" x2="2.392" y1="8.839" y2="5.774"/><line x1="2.392" x2="0" y1="5.774" y2="12.5"/><line x1="0" x2="-2.392" y1="12.5" y2="5.774"/><line x1="-2.392" x2="-8.839" y1="5.774" y2="8.839"/><line x1="-8.839" x2="-5.774" y1="8.839" y2="2.392"/><line x1="-5.774" x2="-12.5" y1="2.392" y2="0"/><line x1="-12.5" x2="-5.774" y1="0" y2="-2.392"/><line x1="-5.774" x2="-8.839" y1="-2.392" y2="-8.839"/><line x1="-8.839" x2="-2.392" y1="-8.839" y2="-5.774"/><line x1="-2.392" x2="0" y1="-5.774" y2="-12.5"/><line x1="0" x2="2.392" y1="-12.5" y2="-5.774"/><line x1="2.392" x2="0" y1="-5.774" y2="-3.125"/><line x1="0" x2="2.392" y1="-3.125" y2="-5.774"/><line x1="2.392" x2="2.21" y1="-5.774" y2="-2.21"/><line x1="2.21" x2="5.774" y1="-2.21" y2="-2.392"/><line x1="5.774" x2="3.125" y1="-2.392" y2="0"/><line x1="3.125" x2="5.774" y1="0" y2="2.392"/><line x1="5.774" x2="2.21" y1="2.392" y2="2.21"/><line x1="2.21" x2="2.392" y1="2.21" y2="5.774"/><line x1="2.392" x2="0" y1="5.774" y2="3.125"/><line x1="0" x2="-2.392" y1="3.125" y2="5.774"/><line x1="-2.392" x2="-2.21" y1="5.774" y2="2.21"/><line x1="-2.21" x2="-5.774" y1="2.21" y2="2.392"/><line x1="-5.774" x2="-3.125" y1="2.392" y2="0"/><line x1="-3.125" x2="-5.774" y1="0" y2="-2.392"/><line x1="-5.774" x2="-2.21" y1="-2.392" y2="-2.21"/><line x1="-2.21" x2="-2.392" y1="-2.21" y2="-5.774"/><line x1="-2.392" x2="0" y1="-5.774" y2="-3.125"/><line x1="0" x2="2.392" y1="-3.125" y2="-5.774"/><line x1="2.392" x2="2.21" y1="-5.774" y2="-2.21"/><line x1="2.21" x2="5.774" y1="-2.21" y2="-2.392"/><line x1="5.774" x2="3.125" y1="-2.392" y2="0"/><line x1="3.125" x2="5.774" y1="0" y2="2.392"/><line x1="5.774" x2="2.21" y1="2.392" y2="2.21"/><line x1="2.21" x2="2.392" y1="2.21" y2="5.774"/><line x1="2.392" x2="0" y1="5.774" y2="3.125"/><line x1="0" x2="-2.392" y1="3.125" y2="5.774"/><line x1="-2.392" x2="-2.21" y1="5.774" y2="2.21"/><line x1="-2.21" x2="-5.774" y1="2.21" y2="2.392"/><line x1="-5.774" x2="-3.125" y1="2.392" y2="0"/><line x1="-3.125" x2="-5.774" y1="0" y2="-2.392"/><line x1="-5.774" x2="-2.21" y1="-2.392" y2="-2.21"/><line x1="-2.21" x2="-2.392" y1="-2.21" y2="-5.774"/><line x1="-2.392" x2="0" y1="-5.774" y2="-3.125"/></g></g><circle r="2" fill="violet" class="center"/></svg>