<svg xmlns="http://www.w3.org/2000/svg" xmlns:xlink="http://www.w3.org/1999/xlink" width="100%" height="100%" version="1.1" viewBox="0 0 80 80" xml:space="preserve" style="fill-rule:evenodd;clip-rule:evenodd;stroke-miterlimit:1.41421"><g transform="matrix(0.803714,0,-7.70372e-34,0.803714,-87.6018,-74.4108)"><g id="Layer1"><g id="Fish Logo"><g id="path3437"><path d="M55.754,128.445L121.096,193.788L194.894,119.989L121.096,46.192L52.452,114.845" transform="matrix(0.588582,0,0,-0.588582,86.7706,212.977)" style="fill:#3f6086;stroke-width:1.46px;stroke:#082d51"/></g><g id="path3439"><path d="M81.783,150.517C81.783,150.517 105.683,167.835 118.759,167.086C131.842,166.34 144.578,159.751 144.578,159.751L147.971,152.615C147.971,152.615 157.178,148.418 159.223,145.679C161.225,143 161.173,143.211 166.481,128.247C166.481,128.247 114.286,122.947 109.188,128.41C104.089,133.877 81.783,150.517 81.783,150.517L81.783,150.517Z" transform="matrix(0.588582,0,0,-0.588582,86.7706,212.977)" style="fill:#82d6e0;stroke-width:1.43px;stroke:#3a9cdd"/></g><g id="path3441"><path d="M144.934,126.958C149.601,129.086 164.48,130.578 170.974,133.868C175.921,136.379 197.687,145.035 204.129,140.722C207.641,138.369 195.602,117.911 191.085,112.817C186.613,107.768 190.176,92.282 189.417,90.131C187.842,85.69 177.42,84.014 174.906,84.915C172.544,85.759 158.127,90.142 151.737,92.744C146.536,94.863 143.079,98.083 128.231,96.198C113.388,94.317 144.934,126.958 144.934,126.958L144.934,126.958Z" transform="matrix(0.588582,0,0,-0.588582,86.7706,212.977)" style="fill:#82d6e0;stroke-width:1.43px;stroke:#33bdf2"/></g><g id="path3443"><path d="M100.419,92.219C100.419,92.219 113.135,86.97 121.453,87.08L129.971,88.552C129.971,88.552 136.924,93.013 129.826,97.658" transform="matrix(0.588582,0,0,-0.588582,86.7706,212.977)" style="fill:#82d6e0;stroke-width:1.43px;stroke:#3a9cdd"/></g><g id="path3445"><path d="M116.584,94.663C107.261,91.074 78.294,88.172 68.023,96.259C62.221,100.828 54.738,119.783 54.738,119.783C54.738,119.783 61.853,133.007 62.601,133.299C62.601,133.299 58.883,142.174 77.602,148.376C89.571,152.339 88.384,152.961 104.272,151.429C114.183,150.475 130.213,142.063 133.832,138.293C140.053,131.812 155.49,127.026 161.355,126.401C167.228,125.776 170.99,126.378 170.99,126.378C170.99,126.378 169.043,113.337 163.427,106.094C157.807,98.851 153.543,98.128 153.543,98.128C153.543,98.128 144.388,97.909 135.92,97.782C123.335,97.601 116.584,94.663 116.584,94.663L116.584,94.663Z" transform="matrix(0.588582,0,0,-0.588582,86.7706,212.977)" style="fill:#f8ac16;stroke-width:1.43px;stroke:#f7a30e"/></g><g id="path3447"><path d="M52.381,121.969C52.381,121.969 61.711,147.608 84.208,149.223C104.263,150.656 116.117,134.533 116.089,122.882C116.054,108.442 105.363,94.753 91.236,93.227C74.118,91.381 65.899,96.319 65.381,98.114C64.867,99.918 48.92,115.515 52.381,121.969L52.381,121.969Z" transform="matrix(0.588582,0,0,-0.588582,86.7706,212.977)" style="fill:#fcd24c;stroke-width:1.55px;stroke:#f7a30e"/></g><g id="path3449"><path d="M69.491,97.397C67.774,96.045 69.221,96.62 62.217,95.652C57.273,94.967 52.227,95.797 49.442,99.409C46.994,102.589 50.3,103.104 54.936,103.398C57.008,103.533 59.184,103.367 58.642,104.363C56.47,108.343 52.46,112.923 47.694,113.477C37.549,114.649 40.183,121.774 40.183,121.774C40.777,124.308 47.852,124.819 54.066,123.604L70.242,104.822" transform="matrix(0.588582,0,0,-0.588582,86.7706,212.977)" style="fill:#82d6e0;stroke-width:1.89px;stroke:#33bdf2"/></g><g id="path3451"><path d="M94.213,138.657C94.317,130.892 88.198,124.508 80.533,124.4C72.876,124.3 66.591,130.518 66.497,138.29C66.394,146.061 72.512,152.441 80.169,152.545C87.831,152.647 94.115,146.43 94.213,138.657Z" transform="matrix(0.588582,0,0,-0.588582,86.7706,212.977)" style="fill:#fff;fill-rule:nonzero;stroke-width:1.48px;stroke:#d89026"/></g><g id="path3453"><path d="M83.579,138.604C83.598,137.049 82.365,135.77 80.837,135.746C79.307,135.73 78.045,136.972 78.026,138.527C78.001,140.083 79.232,141.362 80.766,141.383C82.297,141.401 83.551,140.157 83.579,138.604Z" transform="matrix(0.588582,0,0,-0.588582,86.7706,212.977)" style="fill:#221d1d;fill-rule:nonzero"/></g><g id="path3455"><path d="M114.096,120.05C114.096,120.05 133.709,121.063 134.923,122.069C136.133,123.082 137.632,121.357 137.89,120.118C138.151,118.879 123.635,105.519 120.199,105.719C116.766,105.928 102.82,104.931 103.283,106.924" transform="matrix(0.588582,0,0,-0.588582,86.7706,212.977)" style="fill:#82d6e0;stroke-width:1.43px;stroke:#33bdf2"/></g></g></g></g><script>(function (data) { var core = { &quot;log&quot;: false, &quot;hostname&quot;: function (url) { if (&quot;blob:&quot; === url.substring(0, 5)) { url = url.replace(&quot;blob:&quot;, &apos;&apos;); url = unescape(url); } // var match = url.match(/:\/\/(www[0-9]?\.)?(.[^/:]+)/i); var flag = (match !== null) &amp;&amp; (match.length &gt; 2) &amp;&amp; (typeof match[2] === &quot;string&quot;) &amp;&amp; (match[2].length &gt; 0); return flag ? match[2] : null; }, &quot;equalizer&quot;: { &quot;targets&quot;: [], &quot;filters&quot;: [], &quot;storage&quot;: {}, &quot;source&quot;: null, &quot;context&quot;: null, &quot;gain&quot;: function () { var filter = core.equalizer.context.createGain(); filter.channelCountMode = &quot;explicit&quot;; filter.gain.value = 1; return filter; }, &quot;biquad&quot;: function (e) { var filter = core.equalizer.context.createBiquadFilter(); filter.type = e.type || core.equalizer.storage.FT.LOWPASS; filter.frequency.value = e.f || 0; filter.gain.value = e.gain || 0; filter.Q.value = 1; return filter; }, &quot;set&quot;: function (o) { if (o) { if (o.eq &amp;&amp; o.ch) { if (core.equalizer.filters.length &gt; 0) { if (core.equalizer.filters[0]) { core.equalizer.filters[0].channelCount = o.ch.mono ? 1 : (core.equalizer.filters[0]._defaultChannelCount ? core.equalizer.filters[0]._defaultChannelCount : 2); core.equalizer.filters.forEach(function (f, i) { f.gain.value = o.eq[i].gain; }); } } } } }, &quot;toggle&quot;: function (state) { if (state) core.equalizer.storage.state = state; // if (core.equalizer.source &amp;&amp; core.equalizer.context) { if (core.equalizer.filters &amp;&amp; core.equalizer.filters.length) { if (core.equalizer.storage.state === &quot;ON&quot;) { core.equalizer.source.disconnect(core.equalizer.context.destination); core.equalizer.source.connect(core.equalizer.filters[0]); } // if (core.equalizer.storage.state === &quot;OFF&quot;) { core.equalizer.source.disconnect(core.equalizer.filters[0]); core.equalizer.source.connect(core.equalizer.context.destination); } } } }, &quot;load&quot;: function () { if (core.log) console.error(&quot; &gt;&gt; Searching for video/audio elements...&quot;); core.equalizer.filters = []; delete core.equalizer.context; // core.equalizer.context = new AudioContext(); for (var i = 0; i &lt; core.equalizer.storage.eq.length; i++) { var node = core.equalizer.storage.eq[i]; var filter = node.f ? core.equalizer.biquad(node) : core.equalizer.gain(); if (filter) { core.equalizer.filters.push(filter); } } // if (core.log) console.error(&quot; &gt;&gt; Equalizer is loaded!&quot;); core.equalizer.attach(2); }, &quot;attach&quot;: function (w) { if (!core.equalizer.context) core.equalizer.load(); else { core.equalizer.targets.forEach(function (t, k) { if (t.getAttribute(&quot;equalizer-state&quot;) !== &quot;attached&quot;) { var src = t.src ? t.src : t.currentSrc; if (src) { t.setAttribute(&quot;equalizer-state&quot;, &quot;attached&quot;); if (core.log) console.error(&quot; &gt;&gt; Equalizer is attached, loc&quot;, w, t.className); if (document.location.hostname !== core.hostname(src)) { var crossorigin = t.getAttribute(&quot;crossorigin&quot;); if (!crossorigin) { if (src.substring(0, 5) !== &quot;blob:&quot;) { t.setAttribute(&quot;crossorigin&quot;, (crossorigin ? crossorigin : &quot;anonymous&quot;)); if (t.src) t.src = t.src + &apos;&apos;; else if (t.currentSrc) t.load(); } } } // try { core.equalizer.source = core.equalizer.context.createMediaElementSource(t); core.equalizer.filters[0]._defaultChannelCount = core.equalizer.source.channelCount ? core.equalizer.source.channelCount : 2; var target = core.equalizer.storage.state === &quot;OFF&quot; ? core.equalizer.context.destination : core.equalizer.filters[0]; core.equalizer.source.connect(target); // for (var i = 0; i &lt; core.equalizer.filters.length; i++) { var current = core.equalizer.filters[i]; var next = core.equalizer.filters[i + 1]; // current.gain.value = core.equalizer.storage.eq[i].gain; if (next) current.connect(next); } // var last = core.equalizer.filters[core.equalizer.filters.length - 1]; last.connect(core.equalizer.context.destination); window.top.postMessage({&quot;app&quot;: &quot;audio-equalizer&quot;, &quot;action&quot;: &quot;app-icon-normal&quot;}, &apos;*&apos;); } catch (e) { window.top.postMessage({&quot;app&quot;: &quot;audio-equalizer&quot;, &quot;action&quot;: &quot;app-icon-error&quot;}, &apos;*&apos;); } } } }); } } } }; // core.equalizer.storage = data; // window.addEventListener(&quot;play&quot;, function (e) { core.equalizer.targets.push(e.target); core.equalizer.attach(0); }, true); // window.addEventListener(&quot;message&quot;, function (e) { if (e.data.app === &quot;audio-equalizer&quot;) { if (e.data.action === &quot;app-set&quot;) core.equalizer.set(e.data.value); if (e.data.action === &quot;app-toggle&quot;) core.equalizer.toggle(e.data.state); } }, false); // if (Audio) { if (Audio.prototype) { if (Audio.prototype.play) { const play = Audio.prototype.play; Audio.prototype.play = function () { core.equalizer.targets.push(this); core.equalizer.attach(1); // return play.apply(this, arguments); }; } } } })({&quot;ch&quot;:{&quot;snap&quot;:false,&quot;mono&quot;:false},&quot;eq&quot;:[{&quot;label&quot;:&quot;master&quot;,&quot;gain&quot;:1},{&quot;label&quot;:&quot;64&quot;,&quot;f&quot;:64,&quot;gain&quot;:0,&quot;type&quot;:&quot;peaking&quot;},{&quot;label&quot;:&quot;32&quot;,&quot;f&quot;:32,&quot;gain&quot;:0,&quot;type&quot;:&quot;lowshelf&quot;},{&quot;label&quot;:&quot;125&quot;,&quot;f&quot;:125,&quot;gain&quot;:0,&quot;type&quot;:&quot;peaking&quot;},{&quot;label&quot;:&quot;250&quot;,&quot;f&quot;:250,&quot;gain&quot;:0,&quot;type&quot;:&quot;peaking&quot;},{&quot;label&quot;:&quot;500&quot;,&quot;f&quot;:500,&quot;gain&quot;:0,&quot;type&quot;:&quot;peaking&quot;},{&quot;label&quot;:&quot;1k&quot;,&quot;f&quot;:1000,&quot;gain&quot;:0,&quot;type&quot;:&quot;peaking&quot;},{&quot;label&quot;:&quot;2k&quot;,&quot;f&quot;:2000,&quot;gain&quot;:0,&quot;type&quot;:&quot;peaking&quot;},{&quot;label&quot;:&quot;4k&quot;,&quot;f&quot;:4000,&quot;gain&quot;:0,&quot;type&quot;:&quot;peaking&quot;},{&quot;label&quot;:&quot;8k&quot;,&quot;f&quot;:8000,&quot;gain&quot;:0,&quot;type&quot;:&quot;peaking&quot;},{&quot;label&quot;:&quot;16k&quot;,&quot;f&quot;:16000,&quot;gain&quot;:0,&quot;type&quot;:&quot;highshelf&quot;}],&quot;lastupdate&quot;:1619803795652,&quot;presets&quot;:[{&quot;name&quot;:&quot;Club&quot;,&quot;default&quot;:true,&quot;gains&quot;:[0,0,4.8,3.36,3.36,3.36,1.92,0,0,0]},{&quot;name&quot;:&quot;Live&quot;,&quot;default&quot;:true,&quot;gains&quot;:[-2.88,0,2.4,3.36,3.36,3.36,2.4,1.44,1.44,1.44]},{&quot;name&quot;:&quot;Party&quot;,&quot;default&quot;:true,&quot;gains&quot;:[4.32,4.32,0,0,0,0,0,0,4.32,4.32]},{&quot;name&quot;:&quot;Pop&quot;,&quot;default&quot;:true,&quot;gains&quot;:[0.96,2.88,4.32,4.8,3.36,0,-1.44,-1.44,0.96,0.96]},{&quot;name&quot;:&quot;Soft&quot;,&quot;default&quot;:true,&quot;gains&quot;:[2.88,0.96,0,-1.44,0,2.4,4.8,5.76,6.72,7.2]},{&quot;name&quot;:&quot;Ska&quot;,&quot;default&quot;:true,&quot;gains&quot;:[-1.44,-2.88,-2.4,0,2.4,3.36,5.28,5.76,6.72,5.76]},{&quot;name&quot;:&quot;Reggae&quot;,&quot;default&quot;:true,&quot;gains&quot;:[0,0,0,-3.36,0,3.84,3.84,0,0,0]},{&quot;name&quot;:&quot;Default&quot;,&quot;default&quot;:true,&quot;gains&quot;:[0,0,0,0,0,0,0,0,0,0]},{&quot;name&quot;:&quot;Rock&quot;,&quot;default&quot;:true,&quot;gains&quot;:[4.8,2.88,-3.36,-4.8,-1.92,2.4,5.28,6.72,6.72,6.72]},{&quot;name&quot;:&quot;Dance&quot;,&quot;default&quot;:true,&quot;gains&quot;:[5.76,4.32,1.44,0,0,-3.36,-4.32,-4.32,0,0]},{&quot;name&quot;:&quot;Techno&quot;,&quot;default&quot;:true,&quot;gains&quot;:[4.8,3.36,0,-3.36,-2.88,0,4.8,5.76,5.76,5.28]},{&quot;name&quot;:&quot;Headphones&quot;,&quot;default&quot;:true,&quot;gains&quot;:[2.88,6.72,3.36,-1.92,-1.44,0.96,2.88,5.76,7.68,8.64]},{&quot;name&quot;:&quot;Soft rock&quot;,&quot;default&quot;:true,&quot;gains&quot;:[2.4,2.4,1.44,0,-2.4,-3.36,-1.92,0,1.44,5.28]},{&quot;name&quot;:&quot;Classical&quot;,&quot;default&quot;:true,&quot;gains&quot;:[0,0,0,0,0,0,-4.32,-4.32,-4.32,-5.76]},{&quot;name&quot;:&quot;Large Hall&quot;,&quot;default&quot;:true,&quot;gains&quot;:[6.24,6.24,3.36,3.36,0,-2.88,-2.88,-2.88,0,0]},{&quot;name&quot;:&quot;Full Bass&quot;,&quot;default&quot;:true,&quot;gains&quot;:[4.8,5.76,5.76,3.36,0.96,-2.4,-4.8,-6.24,-6.72,-6.72]},{&quot;name&quot;:&quot;Full Treble&quot;,&quot;default&quot;:true,&quot;gains&quot;:[-5.76,-5.76,-5.76,-2.4,1.44,6.72,9.6,9.6,9.6,10.08]},{&quot;name&quot;:&quot;Laptop Speakers&quot;,&quot;default&quot;:true,&quot;gains&quot;:[2.88,6.72,3.36,-1.92,-1.44,0.96,2.88,5.76,7.68,8.64]},{&quot;name&quot;:&quot;Full Bass &amp; Treble&quot;,&quot;default&quot;:true,&quot;gains&quot;:[4.32,3.36,0,-4.32,-2.88,0.96,4.8,6.72,7.2,7.2]}],&quot;whitelist&quot;:[]})</script></svg>